<svg width="25" height="24" viewBox="0 0 25 24" fill="none" xmlns="http://www.w3.org/2000/svg">
<g clip-path="url(#clip0_482_1267)">
<path d="M8.21666 21.7502C17.271 21.7502 22.2248 14.2469 22.2248 7.74211C22.2248 7.53117 22.2201 7.31554 22.2107 7.1046C23.1744 6.40771 24.006 5.5445 24.6665 4.55554C23.769 4.95484 22.8161 5.21563 21.8404 5.32898C22.8678 4.71315 23.637 3.74572 24.0056 2.60601C23.0391 3.1788 21.9821 3.58286 20.8799 3.80085C20.1373 3.01181 19.1555 2.48936 18.0862 2.3143C17.0169 2.13923 15.9197 2.32129 14.9642 2.83234C14.0088 3.34339 13.2483 4.15495 12.8004 5.14156C12.3524 6.12816 12.2419 7.23486 12.486 8.29054C10.529 8.19233 8.61444 7.68395 6.86649 6.79834C5.11853 5.91274 3.5762 4.66968 2.33947 3.14976C1.7109 4.23349 1.51856 5.51589 1.80153 6.73634C2.08451 7.95678 2.82157 9.02369 3.86291 9.72023C3.08113 9.69541 2.31648 9.48492 1.63213 9.10617V9.1671C1.63143 10.3044 2.0246 11.4068 2.74481 12.287C3.46503 13.1672 4.46783 13.7708 5.58275 13.9952C4.85856 14.1934 4.09849 14.2222 3.36135 14.0796C3.67596 15.0577 4.28808 15.9131 5.11227 16.5266C5.93647 17.14 6.93162 17.4808 7.95885 17.5015C6.21493 18.8714 4.06068 19.6144 1.84307 19.6109C1.44979 19.6103 1.0569 19.5861 0.666504 19.5387C2.91936 20.984 5.54004 21.7516 8.21666 21.7502Z" fill="white"/>
</g>
<defs>
<clipPath id="clip0_482_1267">
<rect width="24" height="24" fill="white" transform="translate(0.666504)"/>
</clipPath>
</defs>
</svg>
