<svg width="122" height="25" viewBox="0 0 122 25" fill="none" xmlns="http://www.w3.org/2000/svg">
<g clip-path="url(#clip0_908_28)">
<path d="M121.784 18.8714V21.8905H119.251C116.549 21.8056 115.105 20.3462 115.105 17.6051V10.7097H113.336V8.06127H115.105V5.0962H118.842V8.03038H121.699V10.6711H118.842V17.2344C118.842 18.1224 119.019 18.8328 120.386 18.8328L121.784 18.8714Z" fill="#111111"/>
<path d="M98.4416 15.0029V14.8022C98.4011 13.9141 98.5364 13.0267 98.8395 12.191C99.1427 11.3553 99.6078 10.5876 100.208 9.93199C100.809 9.27636 101.532 8.74566 102.338 8.37032C103.144 7.99498 104.016 7.78237 104.904 7.74468C105.082 7.74468 105.267 7.74468 105.445 7.74468C108.974 7.74468 112.07 9.79861 112.07 14.694V15.7365H102.264C102.364 17.9911 103.584 19.2652 105.638 19.2652C107.406 19.2652 108.232 18.493 108.472 17.3657H112.001C111.568 20.3076 109.221 21.9446 105.507 21.9446C101.43 21.9137 98.4416 19.3347 98.4416 15.0029ZM108.395 13.3737C108.263 11.3197 107.229 10.3314 105.43 10.3314C103.63 10.3314 102.596 11.4433 102.341 13.3737H108.395Z" fill="#111111"/>
<path d="M83.184 15.0029V14.8022C83.1436 13.9153 83.2783 13.0292 83.5805 12.1944C83.8827 11.3597 84.3464 10.5927 84.9452 9.93726C85.544 9.28183 86.266 8.75083 87.0701 8.37461C87.8742 7.9984 88.7446 7.78434 89.6315 7.74468C89.8091 7.74468 89.9944 7.74468 90.172 7.74468C93.7007 7.74468 96.8048 9.79861 96.8048 14.694V15.7365H87.0062C87.1066 17.9911 88.3266 19.2652 90.3805 19.2652C92.1487 19.2652 92.9749 18.493 93.2143 17.3657H96.743C96.3029 20.3076 93.9555 21.9446 90.2415 21.9446C86.1722 21.9137 83.184 19.3347 83.184 15.0029ZM93.1371 13.3737C93.0058 11.3197 91.9711 10.3314 90.172 10.3314C88.3729 10.3314 87.3691 11.4742 87.0834 13.3659L93.1371 13.3737Z" fill="#111111"/>
<path d="M61.7722 8.03038H65.7256L68.1425 17.1881L70.7909 8.03038H73.8796L76.2732 17.1881L78.8213 8.03038H82.4427L78.1496 21.6357H74.4432L72.1268 13.0957L69.6482 21.6357H65.8955L61.7722 8.03038Z" fill="#111111"/>
<path d="M49.2092 17.358H52.738C52.9001 18.5857 53.5101 19.2884 55.1316 19.2884C56.5833 19.2884 57.2551 18.7401 57.2551 17.8058C57.2551 16.8715 56.4829 16.4777 54.5062 16.1997C50.8848 15.6515 49.4872 14.6091 49.4872 11.9529C49.4872 9.11911 52.0816 7.7138 54.8923 7.7138C57.9114 7.7138 60.1892 8.81025 60.5135 11.9375H57.0311C57.0089 11.6957 56.939 11.4608 56.8254 11.2462C56.7119 11.0316 56.557 10.8416 56.3696 10.6873C56.1822 10.5329 55.9661 10.4172 55.7337 10.3468C55.5013 10.2765 55.2574 10.2529 55.0158 10.2773H54.9C53.68 10.2773 52.9696 10.8487 52.9696 11.6827C52.9696 12.5166 53.6259 12.8795 55.6181 13.1652C59.0001 13.6748 60.8919 14.5319 60.8919 17.4429C60.8919 20.3539 58.753 21.9137 55.1702 21.9137C51.5875 21.9137 49.3096 20.2999 49.2092 17.358Z" fill="#111111"/>
<path d="M34.2141 8.03038H37.9513V10.1847C38.3726 9.39395 39.012 8.74077 39.7935 8.30277C40.5751 7.86476 41.466 7.66034 42.3603 7.7138C45.0088 7.7138 46.9314 9.3276 46.9314 13.0108V21.6666H43.2406V13.5513C43.2406 11.7058 42.5225 10.8256 40.8546 10.8256C40.5021 10.7949 40.147 10.8341 39.8097 10.941C39.4724 11.0479 39.1595 11.2204 38.889 11.4486C38.6185 11.6767 38.3958 11.956 38.2335 12.2705C38.0713 12.585 37.9728 12.9284 37.9436 13.281C37.9243 13.4452 37.9243 13.611 37.9436 13.7752V21.6357H34.2141V8.03038Z" fill="#111111"/>
<path d="M27.0021 4.60975C26.9886 4.23713 27.0859 3.86888 27.2817 3.55161C27.4776 3.23433 27.7632 2.98231 28.1024 2.82745C28.4416 2.67259 28.8191 2.62185 29.1871 2.68165C29.5551 2.74146 29.8972 2.90912 30.1698 3.16342C30.4425 3.41771 30.6336 3.7472 30.719 4.11017C30.8043 4.47314 30.78 4.85326 30.6492 5.20241C30.5183 5.55156 30.2868 5.85405 29.984 6.07156C29.6811 6.28907 29.3206 6.41183 28.9479 6.42431H28.8784C28.6471 6.43895 28.4152 6.40777 28.196 6.33258C27.9768 6.25739 27.7746 6.13966 27.601 5.98614C27.4274 5.83261 27.2858 5.64633 27.1843 5.43796C27.0829 5.22959 27.0236 5.00324 27.0098 4.7719C27.0034 4.7181 27.0008 4.66391 27.0021 4.60975ZM27.0021 8.03038H30.7779V21.6357H27.0175L27.0021 8.03038Z" fill="#111111"/>
<path d="M12.7714 3.04228H24.7088V6.33937H16.9873V11.258H23.1028V14.4315H16.9796V21.6357H12.7714V3.04228Z" fill="#111111"/>
<path d="M5.56722 9.12684C5.56722 10.2928 5.56722 11.7135 3.96114 12.2927C5.60582 12.8563 5.56722 14.0532 5.56722 15.3041V19.937C5.56722 20.8172 5.92241 21.35 6.55557 21.4813C6.6947 21.5282 6.84127 21.5491 6.98797 21.543H8.53228V24.6316H5.98418C3.2662 24.6316 1.76823 23.0873 1.76823 20.2227V14.7404C1.74895 14.4589 1.62485 14.1949 1.42043 14.0005C1.216 13.8061 0.946116 13.6954 0.664051 13.6903H0V10.98H0.664051C0.951744 10.9762 1.22693 10.8618 1.43252 10.6605C1.63812 10.4592 1.75833 10.1865 1.76823 9.89899V4.33949C1.76823 1.52114 3.23532 0 5.98418 0H8.55544V3.04228H7.01114C6.86426 3.0427 6.71835 3.06615 6.57873 3.11177C5.94557 3.27392 5.59038 3.79899 5.59038 4.65608L5.56722 9.12684Z" fill="#111111"/>
</g>
<defs>
<clipPath id="clip0_908_28">
<rect width="122" height="24.7089" fill="white"/>
</clipPath>
</defs>
</svg>
