<svg width="225" height="127" viewBox="0 0 225 127" fill="none" xmlns="http://www.w3.org/2000/svg">
<path d="M52.2793 61.4797C51.801 61.9627 51.4347 62.5456 51.2065 63.1869C50.9783 63.8282 50.8938 64.5121 50.9591 65.19L50.9364 65.1672C51.0035 65.965 50.8963 66.7679 50.6223 67.5199C50.3482 68.2719 49.914 68.9548 49.3499 69.521C48.7857 70.0872 48.1052 70.523 47.3559 70.798C46.6066 71.073 45.8066 71.1805 45.0116 71.1132L45.0343 71.136C44.0833 71.0472 43.1282 71.2548 42.2991 71.7307C41.4701 72.2066 40.8075 72.9276 40.4016 73.7952C39.9958 74.6629 39.8665 75.6351 40.0314 76.5792C40.1962 77.5233 40.6472 78.3934 41.3229 79.0709C41.9985 79.7483 42.8659 80.2002 43.8068 80.3648C44.7477 80.5294 45.7163 80.3987 46.5805 79.9907C47.4447 79.5826 48.1625 78.9169 48.6359 78.0845C49.1094 77.252 49.3154 76.2933 49.2261 75.339L49.2501 75.3618C49.183 74.5639 49.2901 73.761 49.5642 73.009C49.8382 72.257 50.2724 71.5741 50.8366 71.008C51.4007 70.4418 52.0812 70.006 52.8305 69.731C53.5798 69.456 54.3798 69.3484 55.1748 69.4158L55.1509 69.393C55.9277 69.4631 56.7096 69.3353 57.4241 69.0213C58.1386 68.7074 58.7625 68.2176 59.2382 67.5973C59.7138 66.9769 60.0257 66.2461 60.145 65.4725C60.2642 64.699 60.187 63.9077 59.9204 63.1721C59.6538 62.4365 59.2065 61.7803 58.62 61.2644C58.0334 60.7485 57.3266 60.3895 56.5649 60.2207C55.8033 60.0519 55.0116 60.0788 54.2631 60.2989C53.5146 60.519 52.8336 60.9251 52.2831 61.4797H52.2793Z" fill="#1E1B1B"/>
<path d="M42.9678 68.1486L42.9439 68.1258C43.6196 68.1941 44.3019 68.1109 44.9417 67.8822C45.5814 67.6534 46.1624 67.2848 46.6428 66.8031C47.1232 66.3213 47.4909 65.7384 47.7193 65.0966C47.9478 64.4548 48.0312 63.77 47.9636 63.0918L47.9876 63.1146C47.9205 62.3168 48.0277 61.5138 48.3017 60.7619C48.5757 60.0099 49.01 59.327 49.5741 58.7608C50.1383 58.1946 50.8188 57.7588 51.568 57.4838C52.3173 57.2088 53.1174 57.1013 53.9124 57.1686L53.8884 57.1458C54.8395 57.2354 55.7949 57.0285 56.6245 56.5531C57.454 56.0777 58.1172 55.3572 58.5236 54.4896C58.9301 53.6221 59.06 52.6498 58.8956 51.7055C58.7312 50.7611 58.2806 49.8906 57.6052 49.2127C56.9297 48.5349 56.0623 48.0826 55.1214 47.9176C54.1804 47.7527 53.2116 47.883 52.3471 48.291C51.4827 48.6989 50.7647 49.3645 50.291 50.197C49.8174 51.0295 49.6111 51.9883 49.7004 52.9428L49.6777 52.9187C49.7451 53.7166 49.638 54.5197 49.3641 55.2717C49.0901 56.0238 48.6559 56.7068 48.0917 57.2731C47.5275 57.8393 46.8469 58.2751 46.0975 58.55C45.3481 58.8249 44.548 58.9323 43.7529 58.8648L43.7757 58.8888C43.1 58.8205 42.4176 58.9037 41.7779 59.1325C41.1381 59.3613 40.5571 59.7298 40.0767 60.2116C39.5963 60.6933 39.2286 61.2762 39.0002 61.918C38.7717 62.5599 38.6883 63.2446 38.7559 63.9228L38.7332 63.9C38.8 64.6978 38.6927 65.5006 38.4186 66.2525C38.1445 67.0044 37.7103 67.6872 37.1462 68.2534C36.5821 68.8195 35.9017 69.2553 35.1525 69.5304C34.4033 69.8054 33.6033 69.9132 32.8084 69.846L32.8311 69.8688C31.88 69.7792 30.9246 69.9862 30.0951 70.4615C29.2655 70.9369 28.6023 71.6575 28.1959 72.525C27.7894 73.3926 27.6595 74.3648 27.8239 75.3092C27.9883 76.2535 28.4389 77.124 29.1144 77.8019C29.7898 78.4798 30.6572 78.932 31.5982 79.097C32.5392 79.262 33.5079 79.1316 34.3724 78.7237C35.2368 78.3158 35.9548 77.6502 36.4285 76.8177C36.9022 75.9852 37.1084 75.0263 37.0191 74.0719L37.0431 74.0947C36.976 73.2968 37.0831 72.4939 37.3572 71.7419C37.6312 70.9899 38.0654 70.307 38.6296 69.7408C39.1937 69.1746 39.8742 68.7389 40.6235 68.4639C41.3728 68.1889 42.1728 68.0813 42.9678 68.1486Z" fill="#1E1B1B"/>
<path d="M34.5087 65.6063C34.9871 65.1234 35.3534 64.5405 35.5814 63.8991C35.8094 63.2578 35.8935 62.5738 35.8277 61.896L35.8517 61.9188C35.7846 61.1208 35.8918 60.3176 36.166 59.5654C36.4401 58.8132 36.8746 58.1302 37.439 57.564C38.0035 56.9977 38.6843 56.562 39.4339 56.2872C40.1835 56.0124 40.9838 55.9051 41.779 55.9728L41.7551 55.95C42.7058 56.0394 43.6608 55.8323 44.49 55.357C45.3191 54.8817 45.982 54.1612 46.3882 53.294C46.7944 52.4267 46.9242 51.4548 46.7598 50.5108C46.5954 49.5668 46.1449 48.6966 45.4697 48.019C44.7945 47.3414 43.9275 46.8893 42.9868 46.7243C42.0462 46.5594 41.0778 46.6896 40.2136 47.0973C39.3494 47.5049 38.6316 48.1702 38.158 49.0023C37.6843 49.8344 37.478 50.7929 37.5671 51.747L37.5443 51.7242C37.6114 52.522 37.5043 53.325 37.2302 54.077C36.9562 54.829 36.522 55.5119 35.9578 56.078C35.3937 56.6442 34.7132 57.08 33.9639 57.355C33.2146 57.63 32.4146 57.7376 31.6196 57.6702L31.6423 57.693C30.8655 57.6231 30.0837 57.7511 29.3693 58.0652C28.6549 58.3792 28.0311 58.8691 27.5556 59.4896C27.0801 60.11 26.7683 60.8408 26.6492 61.6144C26.5301 62.3879 26.6075 63.1791 26.8741 63.9146C27.1408 64.6501 27.5882 65.3062 28.1747 65.8221C28.7613 66.3379 29.4682 66.6968 30.2297 66.8655C30.9913 67.0342 31.783 67.0072 32.5315 66.7871C33.2799 66.567 33.9609 66.1608 34.5113 65.6063H34.5087Z" fill="#1E1B1B"/>
<path d="M73.6079 52.9722H77.3566V71.2802H73.6079V52.9722Z" fill="#1E1B1B"/>
<path d="M79.4797 65.011C79.4744 63.6953 79.8584 62.4077 80.5829 61.3112C81.3074 60.2147 82.3399 59.3586 83.5496 58.8515C84.7593 58.3444 86.0917 58.2089 87.3782 58.4624C88.6646 58.7158 89.8472 59.3467 90.776 60.2752C91.7049 61.2037 92.3383 62.3879 92.596 63.6779C92.8537 64.968 92.7241 66.3057 92.2236 67.5218C91.7231 68.7378 90.8743 69.7774 89.7846 70.5089C88.6949 71.2405 87.4134 71.6309 86.1025 71.631C85.2322 71.6409 84.3687 71.4767 83.5625 71.1479C82.7562 70.819 82.0234 70.3322 81.4067 69.7159C80.7901 69.0995 80.3021 68.366 79.9712 67.5582C79.6403 66.7503 79.4732 65.8844 79.4797 65.011ZM88.9765 65.011C88.9609 64.4439 88.779 63.894 88.4536 63.4301C88.1283 62.9661 87.6739 62.6087 87.1473 62.4025C86.6206 62.1963 86.0451 62.1505 85.4926 62.2708C84.9402 62.3911 84.4353 62.6722 84.0412 63.0789C83.647 63.4855 83.3811 63.9998 83.2765 64.5574C83.172 65.1149 83.2336 65.691 83.4536 66.2136C83.6735 66.7363 84.0421 67.1822 84.5133 67.4957C84.9844 67.8093 85.5372 67.9765 86.1025 67.9764C86.4896 67.9868 86.8747 67.9166 87.2334 67.7701C87.5922 67.6237 87.9168 67.4043 88.1868 67.1257C88.4569 66.847 88.6664 66.5153 88.8024 66.1513C88.9383 65.7874 88.9976 65.3991 88.9765 65.011Z" fill="#1E1B1B"/>
<path d="M107.666 58.7409V70.6481C107.666 74.8613 104.392 76.6423 101.068 76.6423C99.8981 76.7302 98.7265 76.493 97.6818 75.9567C96.6372 75.4204 95.7598 74.6058 95.146 73.6021L98.3444 71.7464C98.6024 72.2696 99.0135 72.7012 99.5226 72.9835C100.032 73.2658 100.615 73.3853 101.193 73.326C101.563 73.3774 101.94 73.3447 102.295 73.2304C102.651 73.116 102.976 72.9229 103.247 72.6652C103.518 72.4076 103.728 72.0921 103.861 71.7421C103.995 71.3921 104.048 71.0165 104.017 70.6431V69.4967C103.578 70.0357 103.019 70.464 102.385 70.7471C101.752 71.0302 101.061 71.1603 100.368 71.1269C98.7191 71.0748 97.1553 70.3808 96.0075 69.1919C94.8596 68.0031 94.2178 66.4126 94.2178 64.7572C94.2178 63.1018 94.8596 61.5113 96.0075 60.3225C97.1553 59.1336 98.7191 58.4396 100.368 58.3874C101.061 58.3541 101.752 58.4842 102.385 58.7673C103.019 59.0504 103.578 59.4787 104.017 60.0177V58.7383L107.666 58.7409ZM104.018 64.7591C104.043 64.1528 103.887 63.5528 103.57 63.0363C103.252 62.5198 102.788 62.1105 102.237 61.861C101.686 61.6116 101.073 61.5334 100.477 61.6365C99.8808 61.7396 99.3293 62.0193 98.8931 62.4397C98.457 62.86 98.1562 63.4017 98.0294 63.995C97.9027 64.5884 97.9557 65.2063 98.1818 65.7691C98.4079 66.3319 98.7966 66.814 99.298 67.1532C99.7994 67.4924 100.39 67.6733 100.995 67.6726C101.389 67.7002 101.784 67.6447 102.155 67.5096C102.527 67.3746 102.866 67.163 103.15 66.8886C103.435 66.6141 103.659 66.2828 103.809 65.9161C103.958 65.5493 104.03 65.1552 104.018 64.7591Z" fill="#1E1B1B"/>
<path d="M109.789 65.011C109.784 63.6953 110.167 62.4077 110.892 61.3112C111.617 60.2147 112.649 59.3586 113.859 58.8515C115.068 58.3444 116.401 58.2089 117.687 58.4624C118.974 58.7158 120.156 59.3467 121.085 60.2752C122.014 61.2037 122.647 62.3879 122.905 63.6779C123.163 64.968 123.033 66.3057 122.533 67.5218C122.032 68.7378 121.183 69.7774 120.094 70.5089C119.004 71.2405 117.723 71.6309 116.412 71.631C115.541 71.6409 114.678 71.4767 113.872 71.1479C113.065 70.819 112.332 70.3322 111.716 69.7159C111.099 69.0995 110.611 68.366 110.28 67.5582C109.949 66.7503 109.782 65.8844 109.789 65.011ZM119.286 65.011C119.27 64.4439 119.088 63.894 118.763 63.4301C118.437 62.9661 117.983 62.6087 117.456 62.4025C116.93 62.1963 116.354 62.1505 115.802 62.2708C115.249 62.3911 114.744 62.6722 114.35 63.0789C113.956 63.4855 113.69 63.9998 113.586 64.5574C113.481 65.1149 113.543 65.691 113.763 66.2136C113.983 66.7363 114.351 67.1822 114.822 67.4957C115.293 67.8093 115.846 67.9765 116.412 67.9764C116.799 67.9868 117.184 67.9166 117.543 67.7701C117.901 67.6237 118.226 67.4043 118.496 67.1257C118.766 66.847 118.976 66.5153 119.111 66.1513C119.247 65.7874 119.307 65.3991 119.286 65.011Z" fill="#1E1B1B"/>
<path d="M124.783 55.3804C124.783 54.9339 124.915 54.4975 125.162 54.1263C125.409 53.7551 125.76 53.4657 126.171 53.2949C126.582 53.124 127.034 53.0793 127.471 53.1664C127.907 53.2535 128.308 53.4685 128.622 53.7842C128.937 54.0999 129.151 54.5021 129.238 54.94C129.325 55.3779 129.28 55.8317 129.11 56.2442C128.94 56.6567 128.651 57.0092 128.282 57.2572C127.912 57.5053 127.477 57.6377 127.032 57.6377C126.437 57.6317 125.869 57.392 125.448 56.97C125.028 56.5479 124.789 55.9772 124.783 55.3804ZM125.161 58.741H128.911V71.2816H125.156L125.161 58.741Z" fill="#1E1B1B"/>
<path d="M145.098 65.011C145.141 65.8398 145.021 66.669 144.744 67.451C144.467 68.2329 144.038 68.9522 143.483 69.5674C142.928 70.1826 142.257 70.6816 141.51 71.0358C140.762 71.3899 139.951 71.5922 139.125 71.6309C138.431 71.669 137.736 71.5514 137.092 71.2867C136.449 71.0221 135.871 70.6169 135.403 70.1007V76.2963H131.654V58.7407H135.403V59.9187C135.872 59.4029 136.449 58.9981 137.093 58.7337C137.736 58.4692 138.431 58.3518 139.125 58.3898C139.951 58.4284 140.762 58.6306 141.51 58.9847C142.258 59.3389 142.929 59.838 143.484 60.4534C144.039 61.0688 144.468 61.7883 144.745 62.5705C145.022 63.3526 145.142 64.1821 145.098 65.011ZM141.349 65.011C141.335 64.4241 141.148 63.8546 140.812 63.3737C140.477 62.8928 140.007 62.5219 139.463 62.3075C138.918 62.0931 138.322 62.0446 137.751 62.1682C137.179 62.2917 136.656 62.5818 136.247 63.0021C135.839 63.4225 135.563 63.9544 135.454 64.5312C135.346 65.1081 135.409 65.7043 135.636 66.2453C135.864 66.7863 136.245 67.2479 136.732 67.5725C137.22 67.8971 137.792 68.0702 138.377 68.0702C138.778 68.0881 139.179 68.0206 139.553 67.8722C139.927 67.7238 140.265 67.4977 140.546 67.2089C140.827 66.92 141.043 66.5749 141.182 66.1961C141.32 65.8173 141.377 65.4135 141.349 65.011Z" fill="#1E1B1B"/>
<path d="M156.666 67.518C156.666 70.4023 154.168 71.6311 151.469 71.6311C150.379 71.7302 149.284 71.4988 148.326 70.9667C147.368 70.4347 146.592 69.6265 146.096 68.6467L149.344 66.7909C149.475 67.2438 149.757 67.6378 150.143 67.9071C150.529 68.1763 150.996 68.3046 151.464 68.2704C152.363 68.2704 152.814 67.9943 152.814 67.4939C152.814 66.1132 146.665 66.8416 146.665 62.503C146.665 59.7682 148.965 58.39 151.564 58.39C152.541 58.3589 153.508 58.5915 154.365 59.0634C155.222 59.5353 155.937 60.2292 156.436 61.0729L153.238 62.8032C153.097 62.4748 152.864 62.195 152.566 61.9988C152.269 61.8026 151.92 61.6986 151.564 61.6999C150.914 61.6999 150.514 61.9533 150.514 62.4017C150.519 63.8318 156.666 62.878 156.666 67.518Z" fill="#1E1B1B"/>
<path d="M170.36 58.7407V71.2814H166.611V70.102C166.179 70.6224 165.629 71.0324 165.009 71.2984C164.388 71.5644 163.713 71.6788 163.039 71.6322C160.515 71.6322 158.369 69.8271 158.369 66.4386V58.7407H162.118V65.8876C162.086 66.1863 162.12 66.4882 162.217 66.7724C162.314 67.0567 162.471 67.3163 162.678 67.5333C162.885 67.7503 163.136 67.9195 163.415 68.0291C163.693 68.1386 163.992 68.1859 164.291 68.1677C165.666 68.1677 166.615 67.3659 166.615 65.5849V58.7445L170.36 58.7407Z" fill="#1E1B1B"/>
<path d="M191.855 63.5813V71.2804H188.106V63.9068C188.106 62.6527 187.507 61.8509 186.308 61.8509C185.058 61.8509 184.358 62.7287 184.358 64.2083V71.2804H180.61V63.9068C180.61 62.6527 180.01 61.8509 178.81 61.8509C177.561 61.8509 176.861 62.7287 176.861 64.2083V71.2804H173.113V58.7398H176.861V59.8925C177.25 59.3811 177.76 58.9756 178.345 58.7129C178.93 58.4503 179.571 58.3389 180.21 58.3889C180.851 58.3574 181.49 58.4933 182.064 58.7832C182.637 59.0731 183.126 59.5073 183.483 60.0433C183.898 59.4825 184.448 59.0367 185.082 58.7473C185.716 58.458 186.412 58.3347 187.107 58.3889C189.976 58.3902 191.855 60.4461 191.855 63.5813Z" fill="#1E1B1B"/>
<path d="M195.026 58.6638C196.562 58.6638 197.807 57.4139 197.807 55.8719C197.807 54.33 196.562 53.0801 195.026 53.0801C193.489 53.0801 192.244 54.33 192.244 55.8719C192.244 57.4139 193.489 58.6638 195.026 58.6638Z" fill="#1E1B1B"/>
</svg>
