<svg width="227" height="128" viewBox="0 0 227 128" fill="none" xmlns="http://www.w3.org/2000/svg">
<path d="M71.197 54.0293H75.004V72.5079H71.197V54.0293Z" fill="#1E1B1B"/>
<path d="M77.1356 66.1774C77.1356 64.848 77.5273 63.5484 78.2611 62.4436C78.9948 61.3387 80.0376 60.4782 81.2571 59.9712C82.4767 59.4642 83.8182 59.3335 85.1115 59.5957C86.4049 59.8579 87.5919 60.5011 88.522 61.4439C89.4522 62.3866 90.0837 63.5865 90.3365 64.8913C90.5892 66.1962 90.4518 67.5473 89.9417 68.7733C89.4317 69.9994 88.5718 71.0453 87.4713 71.7783C86.3707 72.5114 85.0789 72.8987 83.7597 72.8911C82.8847 72.898 82.0171 72.7288 81.2078 72.3933C80.3986 72.0579 79.664 71.563 79.047 70.9377C78.43 70.3124 77.9432 69.5692 77.6149 68.7518C77.2867 67.9344 77.1238 67.0592 77.1356 66.1774ZM86.6783 66.1774C86.6633 65.6043 86.481 65.0483 86.1541 64.579C85.8272 64.1097 85.3703 63.748 84.8405 63.539C84.3107 63.3301 83.7315 63.2832 83.1754 63.4042C82.6192 63.5252 82.1109 63.8088 81.7138 64.2194C81.3168 64.6301 81.0487 65.1496 80.9431 65.713C80.8375 66.2764 80.899 66.8586 81.1201 67.3869C81.3411 67.9152 81.7118 68.3662 82.1858 68.6833C82.6598 69.0004 83.2161 69.1696 83.785 69.1698C84.1724 69.1774 84.5572 69.1044 84.9153 68.9554C85.2734 68.8064 85.5971 68.5845 85.8663 68.3036C86.1355 68.0228 86.3442 67.689 86.4796 67.3232C86.6149 66.9573 86.6739 66.5673 86.6529 66.1774H86.6783Z" fill="#1E1B1B"/>
<path d="M105.447 59.8474V71.8808C105.447 76.1264 102.147 77.9295 98.8099 77.9295C97.6327 78.0269 96.452 77.7912 95.4005 77.249C94.349 76.7068 93.4686 75.8795 92.8584 74.8604L96.0689 72.9934C96.3291 73.522 96.7429 73.9581 97.2553 74.2437C97.7676 74.5293 98.3542 74.6507 98.9368 74.5919C99.3079 74.638 99.6846 74.6008 100.04 74.4831C100.395 74.3654 100.72 74.1701 100.992 73.9111C101.263 73.652 101.475 73.3357 101.611 72.9847C101.747 72.6338 101.805 72.2568 101.779 71.8808V70.7171C101.336 71.2584 100.774 71.6882 100.138 71.9723C99.501 72.2565 98.8074 72.3871 98.112 72.354C96.4292 72.354 94.8154 71.6804 93.6255 70.4813C92.4356 69.2822 91.7671 67.6558 91.7671 65.96C91.7671 64.2643 92.4356 62.6379 93.6255 61.4388C94.8154 60.2397 96.4292 59.5661 98.112 59.5661C98.8074 59.5329 99.501 59.6636 100.138 59.9477C100.774 60.2319 101.336 60.6616 101.779 61.2029V59.9241L105.447 59.8474ZM101.779 65.9217C101.805 65.3099 101.648 64.7044 101.329 64.1832C101.01 63.6619 100.544 63.2487 99.9899 62.9967C99.4361 62.7447 98.8201 62.6653 98.2212 62.7689C97.6223 62.8725 97.0679 63.1543 96.6292 63.5779C96.1905 64.0016 95.8876 64.5479 95.7594 65.1464C95.6312 65.745 95.6837 66.3685 95.91 66.9368C96.1363 67.5051 96.5261 67.9922 97.0293 68.3354C97.5325 68.6787 98.1261 68.8624 98.7338 68.8629C99.1303 68.8917 99.5283 68.8363 99.9023 68.7004C100.276 68.5646 100.618 68.3511 100.905 68.0739C101.192 67.7968 101.418 67.462 101.569 67.0913C101.719 66.7205 101.791 66.3221 101.779 65.9217Z" fill="#1E1B1B"/>
<path d="M107.591 66.1775C107.591 64.8491 107.982 63.5506 108.715 62.4463C109.447 61.342 110.489 60.4815 111.707 59.9737C112.925 59.4659 114.265 59.3337 115.558 59.5938C116.85 59.8539 118.037 60.4946 118.968 61.4348C119.9 62.375 120.533 63.5724 120.789 64.8756C121.044 66.1788 120.911 67.5291 120.404 68.7556C119.898 69.9822 119.042 71.0298 117.945 71.766C116.848 72.5021 115.559 72.8937 114.24 72.8912C113.364 72.8998 112.494 72.7319 111.683 72.3974C110.871 72.0628 110.134 71.5684 109.515 70.9431C108.896 70.3178 108.407 69.5742 108.076 68.7559C107.746 67.9375 107.581 67.0609 107.591 66.1775ZM117.134 66.1775C117.119 65.6038 116.936 65.0474 116.609 64.5778C116.281 64.1083 115.823 63.7466 115.293 63.538C114.762 63.3294 114.183 63.2833 113.626 63.4053C113.07 63.5274 112.561 63.8122 112.165 64.2241C111.768 64.6361 111.501 65.1567 111.397 65.721C111.293 66.2852 111.356 66.8678 111.579 67.3959C111.802 67.924 112.175 68.374 112.651 68.6896C113.126 69.0051 113.684 69.1722 114.253 69.1699C114.641 69.1775 115.025 69.1045 115.383 68.9555C115.741 68.8065 116.065 68.5846 116.334 68.3037C116.604 68.0229 116.812 67.6891 116.948 67.3233C117.083 66.9574 117.142 66.5674 117.121 66.1775H117.134Z" fill="#1E1B1B"/>
<path d="M122.654 56.4589C122.654 56.0087 122.786 55.5686 123.034 55.1943C123.283 54.8199 123.635 54.5282 124.048 54.3559C124.461 54.1836 124.915 54.1385 125.353 54.2264C125.791 54.3142 126.194 54.531 126.51 54.8493C126.826 55.1677 127.041 55.5732 127.128 56.0148C127.215 56.4563 127.17 56.914 126.999 57.33C126.828 57.7459 126.539 58.1014 126.167 58.3515C125.796 58.6016 125.359 58.7351 124.913 58.7351C124.316 58.7285 123.745 58.4865 123.323 58.0611C122.9 57.6356 122.66 57.0605 122.654 56.4589ZM123.022 59.8477H126.829V72.5077H123.022V59.8477Z" fill="#1E1B1B"/>
<path d="M143.122 66.1777C143.165 67.0196 143.042 67.8618 142.761 68.6557C142.479 69.4495 142.044 70.1795 141.482 70.8035C140.919 71.4274 140.24 71.9331 139.483 72.2915C138.725 72.6498 137.905 72.8536 137.069 72.8913C136.36 72.9389 135.65 72.8244 134.99 72.5565C134.331 72.2886 133.741 71.8741 133.262 71.344V77.5973H129.456V59.8476H133.262V61.0369C133.741 60.5084 134.332 60.0958 134.991 59.8301C135.651 59.5643 136.361 59.4523 137.069 59.5024C137.902 59.5401 138.719 59.7428 139.473 60.0987C140.228 60.4546 140.906 60.9568 141.468 61.5767C142.03 62.1965 142.465 62.9219 142.749 63.7113C143.033 64.5008 143.16 65.3388 143.122 66.1777ZM139.316 66.1777C139.301 65.5837 139.112 65.0075 138.773 64.5211C138.435 64.0347 137.961 63.6599 137.412 63.4436C136.863 63.2273 136.263 63.1791 135.687 63.3051C135.11 63.4311 134.584 63.7257 134.173 64.1519C133.762 64.5782 133.486 65.1171 133.378 65.7012C133.27 66.2852 133.335 66.8884 133.566 67.4352C133.796 67.982 134.182 68.448 134.674 68.7748C135.167 69.1016 135.744 69.2747 136.333 69.2723C136.737 69.2896 137.14 69.2207 137.516 69.07C137.891 68.9194 138.231 68.6905 138.512 68.3982C138.794 68.106 139.011 67.7572 139.15 67.3745C139.288 66.9918 139.344 66.5839 139.316 66.1777Z" fill="#1E1B1B"/>
<path d="M154.708 68.7095C154.708 71.6251 152.17 72.8655 149.48 72.8655C148.383 72.9651 147.281 72.7307 146.317 72.1927C145.354 71.6547 144.572 70.8378 144.074 69.8476L147.348 67.9805C147.478 68.4368 147.759 68.8344 148.145 69.1068C148.531 69.3791 148.997 69.5097 149.467 69.4767C150.368 69.4767 150.825 69.1954 150.825 68.6839C150.825 67.29 144.645 68.0317 144.645 63.6454C144.645 60.8832 146.955 59.5021 149.569 59.5021C150.563 59.4573 151.55 59.6845 152.426 60.1596C153.301 60.6346 154.033 61.3399 154.543 62.2004L151.269 63.9396C151.125 63.6096 150.888 63.329 150.589 63.1316C150.289 62.9341 149.939 62.8284 149.582 62.827C148.922 62.827 148.528 63.0828 148.528 63.5303C148.528 64.9882 154.708 64.0291 154.708 68.7095Z" fill="#1E1B1B"/>
<path d="M168.502 59.8477V72.5077H164.695V71.3184C164.263 71.8449 163.713 72.2615 163.092 72.5347C162.47 72.8079 161.794 72.9301 161.117 72.8913C158.579 72.8913 156.409 71.0627 156.409 67.6483V59.8477H160.216V67.0728C160.186 67.3749 160.221 67.6799 160.32 67.9668C160.418 68.2537 160.577 68.5156 160.786 68.7345C160.995 68.9533 161.248 69.1239 161.529 69.2345C161.809 69.345 162.11 69.3928 162.411 69.3747C163.781 69.3747 164.746 68.5562 164.746 66.8171V59.8477H168.502Z" fill="#1E1B1B"/>
<path d="M190.074 64.7325V72.5076H186.267V65.065C186.267 63.7862 185.671 62.9934 184.465 62.9934C183.26 62.9934 182.498 63.8757 182.498 65.3719V72.5076H178.692V65.065C178.692 63.7862 178.095 62.9934 176.89 62.9934C175.684 62.9934 174.923 63.8757 174.923 65.3719V72.5076H171.116V59.8475H174.923V61.0112C175.317 60.4971 175.832 60.09 176.421 59.8265C177.01 59.5631 177.655 59.4517 178.298 59.5023C178.942 59.4684 179.583 59.6039 180.16 59.8953C180.736 60.1868 181.227 60.6242 181.585 61.1647C182.003 60.6 182.556 60.1514 183.193 59.8607C183.83 59.57 184.53 59.4466 185.227 59.5023C188.196 59.5023 190.074 61.5739 190.074 64.7325Z" fill="#1E1B1B"/>
<path d="M48.5201 50.7044V45.2695H31.5159V82.6103H48.5201V77.1754C45.0368 77.1754 41.6962 75.781 39.2331 73.2988C36.77 70.8167 35.3862 67.4502 35.3862 63.9399C35.3862 60.4296 36.77 57.0631 39.2331 54.581C41.6962 52.0989 45.0368 50.7044 48.5201 50.7044Z" fill="#1E1B1B"/>
<path d="M48.5203 50.7041V77.1751C52.0036 77.1751 55.3442 75.7807 57.8073 73.2985C60.2704 70.8164 61.6542 67.4499 61.6542 63.9396C61.6542 60.4293 60.2704 57.0628 57.8073 54.5807C55.3442 52.0986 52.0036 50.7041 48.5203 50.7041Z" fill="#1E1B1B"/>
<path d="M193.272 59.7707C194.814 59.7707 196.064 58.5112 196.064 56.9574C196.064 55.4036 194.814 54.144 193.272 54.144C191.731 54.144 190.481 55.4036 190.481 56.9574C190.481 58.5112 191.731 59.7707 193.272 59.7707Z" fill="#1E1B1B"/>
</svg>
