<svg width="226" height="127" viewBox="0 0 226 127" fill="none" xmlns="http://www.w3.org/2000/svg">
<path d="M81.25 56.0315H85.0569V71.3969H81.25V56.0315ZM86.567 65.5953C86.567 61.7951 88.9019 59.5277 92.5058 59.5277C96.1097 59.5277 98.4446 61.7951 98.4446 65.5953C98.4446 69.3955 96.1605 71.6756 92.5058 71.6756C88.8512 71.6756 86.567 69.4588 86.567 65.5953ZM94.625 65.5953C94.625 63.5052 93.8002 62.2765 92.5058 62.2765C91.2115 62.2765 90.3993 63.5432 90.3993 65.5953C90.3993 67.6474 91.1988 68.8888 92.5058 68.8888C93.8129 68.8888 94.625 67.7234 94.625 65.608V65.5953ZM99.8786 72.1443H103.533C103.707 72.53 104.001 72.8494 104.372 73.0548C104.742 73.2602 105.169 73.3407 105.589 73.2843C107.036 73.2843 107.797 72.499 107.797 71.3589V69.2308H107.721C107.418 69.8831 106.925 70.4296 106.308 70.7999C105.69 71.1702 104.976 71.3473 104.257 71.3083C101.477 71.3083 99.6375 69.1928 99.6375 65.5573C99.6375 61.9218 101.389 59.629 104.307 59.629C105.049 59.6 105.782 59.798 106.408 60.1964C107.034 60.5949 107.523 61.1748 107.81 61.8584V59.743H111.617V71.2702C111.617 74.0444 109.167 75.7671 105.551 75.7671C102.188 75.7671 100.094 74.2597 99.8786 72.157V72.1443ZM107.81 65.5826C107.81 63.7332 106.959 62.5678 105.614 62.5678C104.269 62.5678 103.444 63.7205 103.444 65.5826C103.444 67.4447 104.257 68.4961 105.614 68.4961C106.972 68.4961 107.81 67.4701 107.81 65.5953V65.5826ZM113.051 65.5826C113.051 61.7824 115.385 59.515 118.989 59.515C122.593 59.515 124.941 61.7824 124.941 65.5826C124.941 69.3828 122.657 71.6629 118.989 71.6629C115.322 71.6629 113.051 69.4588 113.051 65.5953V65.5826ZM121.109 65.5826C121.109 63.4925 120.284 62.2638 118.989 62.2638C117.695 62.2638 116.946 63.5432 116.946 65.608C116.946 67.6727 117.746 68.9015 119.04 68.9015C120.334 68.9015 121.109 67.7234 121.109 65.608V65.5826ZM126.387 56.9815C126.377 56.5979 126.482 56.2199 126.687 55.8955C126.893 55.5711 127.19 55.3149 127.542 55.1594C127.893 55.0039 128.283 54.956 128.662 55.022C129.041 55.0879 129.391 55.2646 129.669 55.5297C129.947 55.7948 130.14 56.1364 130.224 56.5111C130.307 56.8857 130.277 57.2767 130.138 57.6344C129.998 57.992 129.755 58.3003 129.44 58.5201C129.125 58.7399 128.751 58.8613 128.367 58.869C128.112 58.8864 127.857 58.8511 127.616 58.7652C127.376 58.6794 127.155 58.5448 126.97 58.3699C126.784 58.195 126.636 57.9837 126.536 57.7491C126.436 57.5145 126.385 57.2618 126.387 57.0069V56.9815ZM126.387 59.7683H130.194V71.3969H126.387V59.7683ZM144.014 65.5826C144.014 69.3828 142.326 71.5489 139.433 71.5489C138.691 71.5965 137.952 71.4154 137.317 71.0303C136.681 70.6452 136.179 70.0745 135.879 69.3955H135.803V75.1211H131.996V59.743H135.803V61.8204H135.879C136.165 61.1302 136.658 60.5447 137.289 60.1435C137.92 59.7424 138.66 59.545 139.407 59.5783C142.326 59.629 144.064 61.8078 144.064 65.608L144.014 65.5826ZM140.207 65.5826C140.207 63.7332 139.356 62.5552 138.024 62.5552C136.692 62.5552 135.841 63.7459 135.829 65.5826C135.816 67.4194 136.692 68.5975 138.024 68.5975C139.356 68.5975 140.207 67.4447 140.207 65.608V65.5826ZM150.549 59.5023C153.709 59.5023 155.625 60.9971 155.714 63.3912H152.249C152.249 62.5678 151.564 62.0485 150.511 62.0485C149.457 62.0485 148.988 62.4538 148.988 63.0492C148.988 63.6445 149.407 63.8345 150.257 64.0119L152.693 64.5059C155.016 64.9999 156.005 65.9373 156.005 67.6981C156.005 70.1049 153.81 71.6503 150.574 71.6503C147.338 71.6503 145.219 70.1049 145.054 67.7361H148.721C148.836 68.5975 149.521 69.1041 150.638 69.1041C151.754 69.1041 152.262 68.7368 152.262 68.1288C152.262 67.5207 151.907 67.3941 150.993 67.204L148.798 66.7354C146.526 66.2667 145.333 65.0633 145.333 63.2899C145.359 61.0097 147.402 59.5277 150.549 59.5277V59.5023ZM168.708 71.3716H165.04V69.2055H164.964C164.763 69.9327 164.318 70.5693 163.704 71.0094C163.09 71.4495 162.344 71.6667 161.589 71.6249C161.01 71.6578 160.432 71.5663 159.892 71.3567C159.352 71.147 158.863 70.8242 158.459 70.4099C158.055 69.9956 157.745 69.4995 157.549 68.9552C157.353 68.4109 157.277 67.831 157.325 67.2547V59.743H161.132V66.3807C161.132 67.7614 161.843 68.4961 163.023 68.4961C163.3 68.4967 163.573 68.4382 163.825 68.3245C164.078 68.2109 164.303 68.0448 164.485 67.8372C164.668 67.6297 164.804 67.3856 164.884 67.1213C164.965 66.857 164.988 66.5785 164.952 66.3047V59.743H168.759L168.708 71.3716ZM170.548 59.743H174.228V61.9851H174.304C174.506 61.2675 174.941 60.637 175.54 60.1923C176.139 59.7476 176.869 59.5139 177.616 59.5277C178.376 59.467 179.13 59.6939 179.73 60.1633C180.329 60.6327 180.73 61.3103 180.852 62.0611H180.928C181.158 61.3023 181.635 60.6415 182.283 60.1828C182.931 59.7241 183.713 59.4936 184.507 59.5277C185.024 59.5103 185.54 59.6019 186.02 59.7964C186.5 59.9909 186.933 60.2841 187.292 60.6568C187.651 61.0296 187.928 61.4736 188.104 61.9599C188.28 62.4463 188.351 62.9641 188.313 63.4799V71.3969H184.507V64.4932C184.507 63.2265 183.936 62.6438 182.87 62.6438C182.632 62.6418 182.397 62.6907 182.179 62.7872C181.962 62.8838 181.768 63.0257 181.611 63.2033C181.453 63.381 181.336 63.5904 181.266 63.8173C181.196 64.0441 181.176 64.2833 181.207 64.5186V71.3969H177.591V64.4426C177.591 63.2772 177.02 62.6438 175.979 62.6438C175.739 62.6439 175.501 62.6949 175.282 62.7933C175.063 62.8918 174.867 63.0356 174.707 63.2151C174.548 63.3947 174.428 63.6059 174.357 63.835C174.285 64.064 174.263 64.3057 174.291 64.5439V71.3969H170.484L170.548 59.743Z" fill="#1E1B1B"/>
<path d="M70.6035 56.7281C69.9578 55.254 69.103 53.8804 68.0656 52.6492C66.532 50.7749 64.6181 49.246 62.45 48.1632C60.2818 47.0804 57.9085 46.4683 55.4862 46.367C53.064 46.2658 50.6477 46.6778 48.3965 47.5759C46.1453 48.474 44.1101 49.8379 42.4249 51.5777C40.7397 53.3175 39.4428 55.3939 38.6194 57.6701C37.796 59.9463 37.4649 62.3708 37.6478 64.784C37.8307 67.1972 38.5235 69.5443 39.6806 71.6709C40.8377 73.7976 42.4329 75.6555 44.3611 77.1224C45.5984 78.0824 46.9655 78.8629 48.4219 79.4405C50.4637 80.2758 52.6489 80.706 54.8556 80.7072C59.4104 80.6972 63.7755 78.8848 66.9939 75.6673C70.2123 72.4499 72.0215 68.0899 72.0248 63.5431C72.0281 61.1977 71.5442 58.8772 70.6035 56.7281ZM54.8429 49.8497C56.8244 49.8495 58.7821 50.2818 60.5786 51.1164C60.1405 51.3054 59.6799 51.4374 59.2081 51.5091C57.6557 51.7335 56.2175 52.4529 55.1083 53.5602C53.9991 54.6674 53.2783 56.103 53.0536 57.6528C52.955 58.5219 52.559 59.3305 51.9325 59.942C51.306 60.5535 50.4874 60.9306 49.6147 61.0096C48.0622 61.2339 46.6241 61.9534 45.5148 63.0607C44.4056 64.1679 43.6849 65.6035 43.4602 67.1532C43.3841 67.9796 43.0309 68.7562 42.4577 69.3573C41.4687 67.2714 41.0244 64.9696 41.1662 62.6661C41.308 60.3627 42.0312 58.1325 43.2685 56.183C44.5058 54.2336 46.2171 52.6283 48.243 51.5165C50.2689 50.4048 52.5437 49.8227 54.8556 49.8244L54.8429 49.8497ZM44.3484 72.4102C44.5007 72.2708 44.653 72.1441 44.8053 71.9921C45.9342 70.8995 46.6589 69.4572 46.861 67.9006C46.943 67.0256 47.3343 66.2083 47.965 65.5952C48.5719 64.9645 49.3888 64.5771 50.2619 64.5058C51.8143 64.2814 53.2525 63.562 54.3617 62.4547C55.4709 61.3475 56.1917 59.9119 56.4164 58.3621C56.4713 57.4469 56.8647 56.5847 57.5204 55.9427C58.1423 55.3243 58.9669 54.951 59.8426 54.8913C61.2689 54.6954 62.599 54.0625 63.6496 53.0799C64.8458 54.0705 65.8593 55.2623 66.6443 56.6014C66.5961 56.6664 66.5408 56.7259 66.4794 56.7787C65.8737 57.4149 65.0578 57.8108 64.1825 57.8934C62.6285 58.1139 61.1881 58.8321 60.0782 59.94C58.9683 61.048 58.2488 62.4858 58.028 64.0371C57.9386 64.9091 57.5499 65.7235 56.9278 66.3422C56.3056 66.9609 55.4884 67.3459 54.6145 67.4319C53.0575 67.6545 51.6139 68.3726 50.4983 69.4794C49.3827 70.5862 48.6545 72.0227 48.4219 73.5756C48.3536 74.1946 48.1406 74.7891 47.8001 75.311C46.4981 74.5393 45.332 73.5593 44.3484 72.4102ZM54.8429 77.2997C53.5552 77.3011 52.2737 77.122 51.0359 76.7677C51.4594 75.9798 51.7346 75.1212 51.8481 74.2343C51.937 73.3641 52.3239 72.5513 52.9435 71.9328C53.563 71.3144 54.3773 70.9282 55.2489 70.8394C56.8037 70.6176 58.2447 69.8992 59.3564 68.7918C60.4682 67.6843 61.1908 66.2473 61.4162 64.6958C61.5051 63.8257 61.892 63.0128 62.5115 62.3944C63.1311 61.7759 63.9454 61.3897 64.817 61.3009C65.987 61.149 67.1022 60.7142 68.0656 60.0342C68.6005 62.0583 68.6639 64.1779 68.2508 66.2302C67.8378 68.2826 66.9592 70.2132 65.6826 71.874C64.406 73.5348 62.7653 74.8817 60.8863 75.8112C59.0073 76.7407 56.9399 77.2283 54.8429 77.2364V77.2997Z" fill="#1E1B1B"/>
</svg>
