<svg width="225" height="126" viewBox="0 0 225 126" fill="none" xmlns="http://www.w3.org/2000/svg">
<path d="M86.0815 72.2117C85.3308 72.2521 84.5883 72.04 83.9737 71.6094C83.7169 71.4202 83.5103 71.1717 83.3717 70.8853C83.2332 70.599 83.1669 70.2834 83.1785 69.9658V58.3351C83.1724 58.2858 83.1776 58.2359 83.1938 58.1889C83.2101 58.142 83.2369 58.0994 83.2721 58.0643C83.3074 58.0292 83.3503 58.0026 83.3975 57.9865C83.4447 57.9703 83.495 57.9651 83.5446 57.9712H85.665C85.9048 57.9712 86.0184 58.0967 86.0184 58.3351V69.0625C86.0184 69.5392 86.233 69.7776 86.6748 69.7776C86.862 69.7853 87.0494 69.7641 87.2301 69.7149C87.4826 69.7149 87.6214 69.7902 87.634 70.016L87.8234 71.5843C87.8325 71.6301 87.8316 71.6772 87.8208 71.7226C87.8101 71.7679 87.7896 71.8105 87.7609 71.8473C87.7322 71.8842 87.6959 71.9145 87.6544 71.9362C87.6129 71.9579 87.5673 71.9706 87.5204 71.9733C87.056 72.1258 86.5707 72.2062 86.0815 72.2117Z" fill="#1E1B1B"/>
<path d="M98.0094 70.8691C96.9439 71.7442 95.6049 72.2229 94.2228 72.2229C92.8407 72.2229 91.5017 71.7442 90.4362 70.8691C89.4997 69.9294 88.9744 68.66 88.9744 67.3372C88.9744 66.0145 89.4997 64.7451 90.4362 63.8054C91.5038 62.9348 92.842 62.459 94.2228 62.459C95.6037 62.459 96.9418 62.9348 98.0094 63.8054C98.9243 64.7538 99.4351 66.017 99.4351 67.331C99.4351 68.645 98.9243 69.9082 98.0094 70.8566V70.8691ZM92.4305 69.213C92.925 69.6582 93.5683 69.9048 94.2354 69.9048C94.9026 69.9048 95.5459 69.6582 96.0404 69.213C96.4879 68.7015 96.7343 68.0465 96.7343 67.3686C96.7343 66.6908 96.4879 66.0357 96.0404 65.5243C95.5459 65.079 94.9026 64.8324 94.2354 64.8324C93.5683 64.8324 92.925 65.079 92.4305 65.5243C91.983 66.0357 91.7365 66.6908 91.7365 67.3686C91.7365 68.0465 91.983 68.7015 92.4305 69.213Z" fill="#1E1B1B"/>
<path d="M111.111 62.7766C111.351 62.7766 111.464 62.902 111.464 63.1404V72.1364C111.486 72.7435 111.372 73.3479 111.13 73.9057C110.887 74.4635 110.523 74.9606 110.063 75.3608C109.043 76.2259 107.73 76.6742 106.39 76.6155C105.18 76.6578 103.986 76.3293 102.97 75.6745C102.536 75.3913 102.165 75.0223 101.881 74.5907C101.596 74.159 101.404 73.6738 101.316 73.1652C101.316 72.9143 101.316 72.8013 101.657 72.8013H103.778C103.868 72.8044 103.955 72.8332 104.029 72.8844C104.103 72.9356 104.16 73.007 104.194 73.0899C104.332 73.471 104.606 73.7882 104.964 73.9807C105.401 74.2046 105.886 74.3168 106.378 74.3069C106.674 74.3231 106.971 74.2803 107.25 74.1812C107.53 74.0821 107.787 73.9287 108.006 73.7298C108.206 73.5217 108.362 73.2755 108.464 73.0059C108.566 72.7364 108.612 72.4491 108.599 72.1614V71.371C107.84 71.9261 106.916 72.2131 105.974 72.1865C105.314 72.2104 104.657 72.1015 104.041 71.8665C103.425 71.6315 102.863 71.2752 102.389 70.819C101.479 69.8831 100.97 68.6325 100.97 67.331C100.97 66.0295 101.479 64.7788 102.389 63.843C102.865 63.3908 103.428 63.0379 104.044 62.8052C104.659 62.5725 105.315 62.4646 105.974 62.488C106.943 62.4625 107.892 62.7681 108.662 63.3537V63.153C108.656 63.1049 108.661 63.0561 108.677 63.0102C108.692 62.9643 108.718 62.9224 108.752 62.8876C108.786 62.8527 108.827 62.8258 108.873 62.8088C108.918 62.7918 108.967 62.785 109.016 62.7891L111.111 62.7766ZM106.214 69.9532C106.539 69.9632 106.862 69.9021 107.161 69.7742C107.46 69.6463 107.727 69.4547 107.943 69.213C108.362 68.6743 108.59 68.0123 108.59 67.331C108.59 66.6497 108.362 65.9877 107.943 65.449C107.727 65.2105 107.462 65.0218 107.166 64.8961C106.869 64.7704 106.548 64.7107 106.226 64.7213C105.897 64.711 105.57 64.7719 105.267 64.8997C104.964 65.0275 104.693 65.2192 104.472 65.4615C104.007 65.9768 103.762 66.6519 103.79 67.3435C103.767 68.0283 104.006 68.6963 104.459 69.213C104.681 69.4547 104.952 69.6459 105.255 69.7737C105.558 69.9014 105.885 69.9627 106.214 69.9532Z" fill="#1E1B1B"/>
<path d="M122.357 70.8694C121.289 71.7399 119.951 72.2157 118.57 72.2157C117.19 72.2157 115.851 71.7399 114.784 70.8694C113.868 69.9188 113.357 68.6536 113.357 67.3375C113.357 66.0214 113.868 64.7561 114.784 63.8056C115.852 62.9373 117.19 62.4629 118.57 62.4629C119.951 62.4629 121.288 62.9373 122.357 63.8056C123.272 64.754 123.783 66.0172 123.783 67.3312C123.783 68.6452 123.272 69.9084 122.357 70.8568V70.8694ZM116.765 69.2132C117.007 69.442 117.293 69.6208 117.605 69.7393C117.917 69.8577 118.249 69.9135 118.583 69.9033C118.915 69.9118 119.245 69.8553 119.555 69.7369C119.864 69.6184 120.147 69.4405 120.388 69.2132C120.828 68.6983 121.07 68.0446 121.07 67.3688C121.07 66.6931 120.828 66.0394 120.388 65.5245C120.147 65.2972 119.864 65.1193 119.555 65.0008C119.245 64.8824 118.915 64.8259 118.583 64.8344C118.249 64.8242 117.917 64.88 117.605 64.9984C117.293 65.1169 117.007 65.2957 116.765 65.5245C116.325 66.0394 116.084 66.6931 116.084 67.3688C116.084 68.0446 116.325 68.6983 116.765 69.2132Z" fill="#1E1B1B"/>
<path d="M128.34 60.6436C128.006 60.9339 127.578 61.0939 127.134 61.0939C126.691 61.0939 126.263 60.9339 125.929 60.6436C125.778 60.5017 125.657 60.3306 125.575 60.1407C125.492 59.9508 125.45 59.7463 125.45 59.5395C125.45 59.3327 125.492 59.1281 125.575 58.9383C125.657 58.7484 125.778 58.5773 125.929 58.4354C126.266 58.1523 126.693 57.9971 127.134 57.9971C127.576 57.9971 128.003 58.1523 128.34 58.4354C128.491 58.5773 128.612 58.7484 128.694 58.9383C128.776 59.1281 128.819 59.3327 128.819 59.5395C128.819 59.7463 128.776 59.9508 128.694 60.1407C128.612 60.3306 128.491 60.5017 128.34 60.6436ZM128.605 72.2116C127.855 72.2482 127.113 72.0364 126.497 71.6094C126.244 71.4173 126.041 71.168 125.905 70.882C125.769 70.5961 125.703 70.2819 125.714 69.9658V63.1404C125.708 63.0911 125.714 63.0412 125.73 62.9942C125.746 62.9473 125.773 62.9047 125.808 62.8696C125.843 62.8345 125.886 62.8079 125.933 62.7918C125.981 62.7756 126.031 62.7704 126.08 62.7765H128.201C128.441 62.7765 128.554 62.902 128.554 63.1404V69.0624C128.554 69.5392 128.769 69.7776 129.198 69.7776C129.389 69.7844 129.581 69.7633 129.766 69.7148C130.018 69.7148 130.157 69.7901 130.17 70.0159L130.359 71.5843C130.368 71.63 130.367 71.6771 130.357 71.7225C130.346 71.7679 130.326 71.8104 130.297 71.8473C130.268 71.8841 130.232 71.9144 130.19 71.9362C130.149 71.9579 130.103 71.9705 130.056 71.9732C129.588 72.1266 129.098 72.207 128.605 72.2116Z" fill="#1E1B1B"/>
<path d="M138.16 62.4758C138.822 62.4498 139.483 62.5564 140.103 62.7891C140.723 63.0219 141.29 63.3762 141.77 63.8309C142.662 64.7831 143.159 66.0362 143.159 67.3377C143.159 68.6391 142.662 69.8923 141.77 70.8445C141.292 71.3032 140.726 71.6609 140.106 71.896C139.485 72.1311 138.823 72.2386 138.16 72.212C137.215 72.2329 136.289 71.9466 135.522 71.3965V75.9258C135.522 76.1642 135.396 76.2772 135.156 76.2772H133.035C132.987 76.2861 132.937 76.2833 132.89 76.2688C132.843 76.2543 132.8 76.2287 132.766 76.1941C132.731 76.1595 132.705 76.117 132.69 76.0702C132.676 76.0235 132.673 75.9739 132.682 75.9258V65.6376C132.697 65.537 132.688 65.4343 132.656 65.3377C132.624 65.2412 132.569 65.1534 132.497 65.0815C132.424 65.0096 132.336 64.9555 132.239 64.9235C132.142 64.8915 132.039 64.8826 131.937 64.8973H131.521C131.243 64.8973 131.104 64.797 131.104 64.5962V63.1157C131.098 63.0241 131.123 62.933 131.176 62.8577C131.229 62.7823 131.306 62.7273 131.395 62.7017C131.831 62.5439 132.293 62.4674 132.758 62.4758C133.221 62.4351 133.686 62.5327 134.093 62.7563C134.5 62.9798 134.83 63.319 135.042 63.7305C135.449 63.3217 135.935 62.9996 136.471 62.7839C137.007 62.5681 137.582 62.4633 138.16 62.4758ZM136.191 69.2134C136.416 69.4472 136.686 69.6333 136.986 69.7604C137.285 69.8875 137.607 69.953 137.933 69.953C138.258 69.953 138.58 69.8875 138.88 69.7604C139.179 69.6333 139.449 69.4472 139.675 69.2134C140.149 68.6878 140.398 67.9991 140.369 67.2938C140.402 66.5878 140.152 65.8976 139.675 65.3741C139.449 65.1403 139.179 64.9542 138.88 64.8271C138.58 64.7 138.258 64.6345 137.933 64.6345C137.607 64.6345 137.285 64.7 136.986 64.8271C136.686 64.9542 136.416 65.1403 136.191 65.3741C135.732 65.9068 135.493 66.5928 135.522 67.2938C135.496 67.9942 135.735 68.6788 136.191 69.2134Z" fill="#1E1B1B"/>
<path d="M149.115 72.2118C147.982 72.2581 146.859 71.9887 145.872 71.4339C145.476 71.1968 145.138 70.874 144.885 70.4895C144.631 70.1051 144.468 69.6689 144.407 69.2132C144.407 68.9622 144.496 68.8368 144.774 68.8368H146.629C146.717 68.8402 146.803 68.8678 146.876 68.9165C146.95 68.9652 147.008 69.0331 147.045 69.1128C147.311 69.7903 148.005 70.1291 149.115 70.1291C149.503 70.1467 149.889 70.0691 150.239 69.9032C150.36 69.849 150.463 69.7632 150.539 69.6549C150.615 69.5466 150.659 69.42 150.668 69.2885C150.668 68.9622 150.466 68.7364 150.062 68.5858C149.583 68.4273 149.088 68.3221 148.585 68.2722C147.99 68.2052 147.4 68.1004 146.818 67.9585C146.253 67.8312 145.738 67.5384 145.341 67.1179C145.108 66.832 144.936 66.5015 144.836 66.1467C144.737 65.792 144.711 65.4207 144.762 65.0559C144.813 64.6911 144.939 64.3406 145.132 64.0262C145.325 63.7118 145.581 63.4403 145.884 63.2284C146.794 62.6523 147.861 62.3717 148.939 62.4254C149.982 62.3904 151.014 62.6468 151.918 63.1657C152.282 63.3707 152.595 63.654 152.836 63.9947C153.076 64.3355 153.236 64.7252 153.306 65.1355C153.306 65.3864 153.192 65.5119 152.965 65.5119H151.097C151.018 65.5165 150.94 65.4975 150.873 65.4572C150.805 65.4169 150.751 65.3572 150.718 65.2861C150.594 64.9889 150.359 64.7508 150.062 64.6211C149.728 64.4471 149.354 64.3608 148.977 64.3702C148.607 64.3502 148.238 64.4235 147.904 64.5835C147.786 64.6286 147.685 64.7076 147.613 64.8105C147.541 64.9134 147.501 65.0353 147.5 65.1606C147.508 65.3322 147.571 65.4967 147.68 65.6299C147.789 65.7631 147.938 65.8581 148.106 65.9009C148.59 66.0824 149.094 66.2087 149.608 66.2773C150.198 66.3545 150.784 66.4634 151.362 66.6035C151.928 66.7307 152.442 67.0235 152.839 67.4441C153.051 67.6758 153.215 67.947 153.321 68.242C153.427 68.537 153.474 68.8501 153.457 69.163C153.468 69.5967 153.366 70.0258 153.16 70.4084C152.954 70.7911 152.652 71.1141 152.284 71.3461C151.34 71.9479 150.235 72.2499 149.115 72.2118Z" fill="#1E1B1B"/>
<path d="M166.799 71.5846C166.806 71.6292 166.804 71.6747 166.793 71.7185C166.783 71.7623 166.763 71.8035 166.736 71.8398C166.709 71.876 166.675 71.9065 166.636 71.9295C166.597 71.9524 166.554 71.9674 166.509 71.9735C166.048 72.1231 165.567 72.2035 165.082 72.2119C164.603 72.2613 164.118 72.1868 163.676 71.9956C163.234 71.8043 162.849 71.5029 162.558 71.1204C161.666 71.8823 160.514 72.2733 159.339 72.2119C158.794 72.2369 158.25 72.1482 157.741 71.9516C157.232 71.755 156.771 71.4547 156.386 71.0702C156.004 70.6673 155.707 70.1918 155.514 69.6722C155.321 69.1526 155.235 68.5997 155.262 68.0464V63.1407C155.262 62.9023 155.376 62.7769 155.616 62.7769H157.736C157.976 62.7769 158.09 62.9023 158.09 63.1407V67.67C158.067 68.2343 158.261 68.7862 158.633 69.2133C158.818 69.4089 159.044 69.5628 159.294 69.6645C159.544 69.7663 159.814 69.8135 160.084 69.803C160.361 69.815 160.637 69.7724 160.897 69.6777C161.157 69.5829 161.395 69.4379 161.599 69.2509C161.791 69.0539 161.941 68.8197 162.038 68.5629C162.136 68.3061 162.18 68.0321 162.167 67.7579V63.1407C162.167 62.9023 162.28 62.7769 162.52 62.7769H164.666C164.906 62.7769 165.019 62.9023 165.019 63.1407V69.0502C165.019 69.5395 165.234 69.7779 165.65 69.7779C165.846 69.7854 166.041 69.7643 166.231 69.7152C166.279 69.7019 166.329 69.6995 166.377 69.7082C166.426 69.7169 166.472 69.7365 166.513 69.7654C166.553 69.7944 166.586 69.832 166.609 69.8755C166.632 69.9189 166.645 69.967 166.647 70.0163L166.799 71.5846Z" fill="#1E1B1B"/>
<path d="M186.855 71.5842C186.866 71.6292 186.867 71.676 186.858 71.7214C186.849 71.7668 186.83 71.8096 186.802 71.8468C186.774 71.884 186.739 71.9146 186.698 71.9365C186.657 71.9583 186.611 71.9708 186.565 71.9732C186.096 72.1248 185.606 72.2052 185.113 72.2116C184.363 72.2501 183.621 72.0381 183.005 71.6093C182.739 71.4257 182.523 71.1796 182.375 70.8929C182.228 70.6062 182.154 70.2877 182.16 69.9657V67.0173C182.186 66.4546 181.997 65.903 181.629 65.474C181.452 65.2779 181.234 65.1233 180.989 65.0213C180.745 64.9194 180.481 64.8726 180.216 64.8843C179.977 64.8754 179.739 64.9204 179.521 65.016C179.302 65.1117 179.108 65.2554 178.954 65.4364C178.62 65.8568 178.45 66.3822 178.474 66.9169V71.5466C178.474 71.785 178.36 71.9104 178.121 71.9104H175.987C175.938 71.9166 175.888 71.9113 175.84 71.8952C175.793 71.8791 175.75 71.8525 175.715 71.8174C175.68 71.7823 175.653 71.7397 175.637 71.6927C175.62 71.6458 175.615 71.5958 175.621 71.5466V67.0173C175.649 66.4608 175.474 65.913 175.129 65.474C174.975 65.2896 174.782 65.1412 174.564 65.0392C174.346 64.9373 174.108 64.8844 173.867 64.8843C173.609 64.874 173.353 64.9178 173.113 65.013C172.874 65.1081 172.658 65.2524 172.479 65.4364C172.118 65.8434 171.932 66.375 171.961 66.9169V71.5466C171.967 71.5958 171.962 71.6458 171.946 71.6927C171.929 71.7397 171.903 71.7823 171.867 71.8174C171.832 71.8525 171.789 71.8791 171.742 71.8952C171.695 71.9113 171.645 71.9166 171.595 71.9104H169.538C169.298 71.9104 169.184 71.785 169.184 71.5466V65.6371C169.199 65.5365 169.19 65.4338 169.158 65.3373C169.126 65.2407 169.071 65.153 168.999 65.081C168.927 65.0091 168.838 64.955 168.741 64.923C168.644 64.8911 168.541 64.8821 168.44 64.8969H168.023C167.745 64.8969 167.606 64.7965 167.606 64.5958V63.1152C167.6 63.0236 167.625 62.9326 167.678 62.8572C167.731 62.7819 167.808 62.7268 167.897 62.7012C168.333 62.5434 168.795 62.4669 169.26 62.4754C169.706 62.4376 170.153 62.526 170.551 62.7302C170.948 62.9344 171.28 63.2463 171.507 63.6297C171.932 63.2285 172.437 62.9189 172.989 62.7203C173.54 62.5217 174.127 62.4383 174.713 62.4754C175.281 62.4478 175.849 62.5538 176.368 62.7849C176.888 63.016 177.346 63.3655 177.704 63.8053C178.122 63.354 178.635 63.0006 179.207 62.7706C179.779 62.5406 180.395 62.4398 181.011 62.4754C181.562 62.4497 182.112 62.538 182.627 62.7345C183.142 62.931 183.61 63.2316 184.002 63.6171C184.386 64.0192 184.683 64.4946 184.876 65.0144C185.069 65.5341 185.154 66.0875 185.126 66.6409V69.0624C185.126 69.5391 185.34 69.7775 185.744 69.7775C185.94 69.7866 186.136 69.7654 186.325 69.7148C186.586 69.7148 186.724 69.8152 186.741 70.0159L186.855 71.5842Z" fill="#1E1B1B"/>
<path d="M38.8507 61.1456C39.782 57.4251 41.9386 54.1212 44.9773 51.7601C48.016 49.3989 51.762 48.1162 55.6189 48.1162C59.4758 48.1162 63.2219 49.3989 66.2606 51.7601C69.2993 54.1212 71.4559 57.4251 72.3871 61.1456H70.8725C68.3174 61.1082 65.8147 61.8672 63.7159 63.3161C63.5948 63.4033 63.4683 63.4829 63.3372 63.5545H63.1605C63.0295 63.4829 62.903 63.4033 62.7819 63.3161C60.6644 61.9008 58.1706 61.1448 55.6189 61.1448C53.0673 61.1448 50.5735 61.9008 48.456 63.3161C48.3349 63.4033 48.2084 63.4829 48.0774 63.5545H47.9007C47.7696 63.4829 47.6431 63.4033 47.522 63.3161C45.4231 61.8672 42.9204 61.1082 40.3654 61.1456H38.8507ZM68.1462 69.0123C68.9237 68.4104 69.8873 68.0955 70.8725 68.1215H72.9046V64.094H70.8725C69.1373 64.0732 67.4417 64.6101 66.0383 65.6247C65.2486 66.2035 64.2932 66.5157 63.312 66.5157C62.3308 66.5157 61.3754 66.2035 60.5857 65.6247C59.1467 64.629 57.4354 64.0952 55.682 64.0952C53.9287 64.0952 52.2174 64.629 50.7784 65.6247C49.9887 66.2035 49.0333 66.5157 48.0521 66.5157C47.0709 66.5157 46.1155 66.2035 45.3258 65.6247C43.9051 64.5971 42.1852 64.0595 40.4285 64.094H38.3333V68.1215H40.3654C41.3505 68.0955 42.3142 68.4104 43.0917 69.0123C44.5281 70.0087 46.2375 70.543 47.989 70.543C49.7406 70.543 51.4499 70.0087 52.8863 69.0123C53.6648 68.4123 54.6278 68.0976 55.6126 68.1215C56.5981 68.0934 57.5624 68.4085 58.339 69.0123C59.778 70.0081 61.4892 70.5418 63.2426 70.5418C64.9959 70.5418 66.7072 70.0081 68.1462 69.0123ZM68.1462 76.2141C68.9237 75.6122 69.8873 75.2973 70.8725 75.3233H72.9046V71.2958H70.8725C69.1373 71.2749 67.4417 71.8118 66.0383 72.8265C65.2486 73.4053 64.2932 73.7175 63.312 73.7175C62.3308 73.7175 61.3754 73.4053 60.5857 72.8265C59.1467 71.8308 57.4354 71.297 55.682 71.297C53.9287 71.297 52.2174 71.8308 50.7784 72.8265C49.9887 73.4053 49.0333 73.7175 48.0521 73.7175C47.0709 73.7175 46.1155 73.4053 45.3258 72.8265C43.9051 71.7989 42.1852 71.2613 40.4285 71.2958H38.3333V75.3233H40.3654C41.3505 75.2973 42.3142 75.6122 43.0917 76.2141C44.5281 77.2105 46.2375 77.7448 47.989 77.7448C49.7406 77.7448 51.4499 77.2105 52.8863 76.2141C53.6648 75.614 54.6278 75.2994 55.6126 75.3233C56.5981 75.2952 57.5624 75.6103 58.339 76.2141C59.778 77.2099 61.4892 77.7436 63.2426 77.7436C64.9959 77.7436 66.7072 77.2099 68.1462 76.2141Z" fill="#1E1B1B"/>
</svg>
