<svg width="226" height="127" viewBox="0 0 226 127" fill="none" xmlns="http://www.w3.org/2000/svg">
<path d="M78.4561 56.2719H82.5295V72.7394H78.4561V56.2719ZM84.1538 66.5451C84.1538 62.4662 86.6917 60.0214 90.4986 60.0214C94.3056 60.0214 96.8435 62.4662 96.8435 66.5451C96.8435 70.624 94.3944 73.0941 90.4986 73.0941C86.6029 73.0941 84.1538 70.7126 84.1538 66.5451ZM92.8082 66.5451C92.8082 64.303 91.9326 62.9856 90.5367 62.9856C89.1408 62.9856 88.2779 64.2523 88.2779 66.5451C88.2779 68.8379 89.1408 70.0919 90.5367 70.0919C91.9326 70.0919 92.8335 68.8379 92.8335 66.5578L92.8082 66.5451ZM98.4678 73.5881H102.402C102.581 74.0109 102.893 74.3635 103.292 74.5923C103.691 74.821 104.154 74.9132 104.61 74.8548C106.17 74.8548 106.983 74.0188 106.983 72.7774V70.4973H106.995C106.659 71.2073 106.116 71.799 105.436 72.1947C104.757 72.5904 103.973 72.7715 103.188 72.7141C100.206 72.7141 98.2267 70.4466 98.2267 66.5451C98.2267 62.6436 100.117 60.2114 103.303 60.2114C104.107 60.1685 104.906 60.3756 105.587 60.8044C106.269 61.2332 106.801 61.8625 107.11 62.6056H106.995V60.3128H111.031V72.6507C111.031 75.6275 108.391 77.4896 104.508 77.4896C100.98 77.477 98.7216 75.8682 98.4932 73.6008L98.4678 73.5881ZM106.995 66.5451C106.995 64.5563 106.082 63.3023 104.635 63.3023C103.188 63.3023 102.3 64.569 102.3 66.5451C102.3 68.5212 103.176 69.6866 104.635 69.6866C106.094 69.6866 106.995 68.6099 106.995 66.5451ZM112.642 66.5451C112.642 62.4662 115.18 60.0214 118.987 60.0214C122.794 60.0214 125.332 62.4662 125.332 66.5451C125.332 70.624 122.87 73.0941 118.987 73.0941C115.104 73.0941 112.668 70.7126 112.668 66.5451H112.642ZM121.297 66.5451C121.297 64.303 120.408 62.9856 119.025 62.9856C117.642 62.9856 116.766 64.2523 116.766 66.5451C116.766 68.8379 117.629 70.0919 119.025 70.0919C120.421 70.0919 121.322 68.8379 121.322 66.5578L121.297 66.5451ZM126.982 57.3106C126.964 56.8964 127.071 56.4864 127.288 56.1333C127.506 55.7802 127.825 55.5002 128.203 55.3293C128.581 55.1584 129.002 55.1044 129.412 55.1742C129.821 55.2441 130.2 55.4346 130.5 55.7213C130.8 56.008 131.007 56.3777 131.095 56.783C131.183 57.1882 131.147 57.6103 130.993 57.9951C130.838 58.3799 130.572 58.7097 130.228 58.9422C129.884 59.1746 129.478 59.299 129.063 59.2994C128.797 59.3061 128.533 59.2602 128.286 59.1642C128.038 59.0682 127.812 58.9241 127.621 58.7403C127.43 58.5565 127.277 58.3365 127.172 58.0933C127.066 57.85 127.01 57.5883 127.007 57.3233L126.982 57.3106ZM126.982 60.3001H131.106V72.7901H127.045L126.982 60.3001ZM145.94 66.5451C145.94 70.6113 144.113 72.9674 141.004 72.9674C140.208 73.0164 139.416 72.8204 138.735 72.4059C138.054 71.9913 137.518 71.3782 137.197 70.6493H137.121V76.8056H133.047V60.3381H137.095V62.5676H137.172C137.481 61.8243 138.013 61.1944 138.694 60.7638C139.375 60.3331 140.173 60.1225 140.978 60.1608C144.176 60.1354 146.016 62.4789 146.016 66.5578L145.94 66.5451ZM141.791 66.5451C141.791 64.569 140.864 63.2896 139.43 63.2896C137.996 63.2896 137.095 64.5563 137.083 66.5451C137.07 68.5339 137.996 69.7879 139.43 69.7879C140.864 69.7879 141.867 68.6099 141.867 66.5578L141.791 66.5451ZM152.894 60.0088C156.308 60.0088 158.427 61.6175 158.452 64.2016H154.734C154.734 63.3023 153.986 62.7449 152.869 62.7449C151.752 62.7449 151.219 63.1756 151.219 63.8216C151.219 64.4677 151.689 64.6703 152.628 64.8603L155.242 65.3924C157.78 65.9244 158.795 66.9378 158.795 68.8252C158.795 71.3587 156.447 73.0814 152.958 73.0814C149.468 73.0814 147.196 71.4093 147.032 68.8632H150.978C151.092 69.7879 151.828 70.3326 153.021 70.3326C154.214 70.3326 154.772 69.9526 154.772 69.2812C154.772 68.6099 154.392 68.4959 153.414 68.2932L151.054 67.7992C148.605 67.2798 147.323 66.0004 147.323 64.0876C147.4 61.6049 149.531 60.0214 152.97 60.0214L152.894 60.0088ZM172.436 72.7774H168.49V70.434H168.414C168.193 71.2156 167.712 71.8988 167.05 72.3708C166.388 72.8429 165.584 73.0757 164.772 73.0308C164.158 73.0507 163.548 72.9409 162.98 72.7087C162.412 72.4764 161.9 72.1269 161.477 71.6832C161.054 71.2394 160.73 70.7113 160.526 70.1336C160.321 69.5559 160.242 68.9417 160.292 68.3312V60.3128H164.366V67.4571C164.366 68.9265 165.14 69.7246 166.409 69.7246C166.707 69.7224 167 69.6564 167.27 69.5311C167.54 69.4059 167.78 69.2242 167.974 68.9985C168.167 68.7728 168.31 68.5082 168.393 68.2226C168.475 67.937 168.495 67.6371 168.452 67.3431V60.3128H172.513L172.436 72.7774ZM174.403 60.3001H178.363V62.7069H178.451C178.67 61.9359 179.139 61.2591 179.784 60.7823C180.429 60.3055 181.215 60.0558 182.017 60.0721C182.823 60.0022 183.626 60.2348 184.269 60.7244C184.912 61.214 185.349 61.9254 185.494 62.7196H185.672C185.925 61.9212 186.436 61.2288 187.125 60.75C187.813 60.2713 188.641 60.0329 189.479 60.0721C190.036 60.0509 190.591 60.1474 191.108 60.3553C191.625 60.5631 192.093 60.8777 192.479 61.2782C192.866 61.6788 193.164 62.1565 193.353 62.6799C193.543 63.2033 193.619 63.7607 193.578 64.3157V72.7901H189.479V65.3544C189.479 64.0876 188.882 63.3783 187.728 63.3783C187.471 63.3741 187.217 63.4252 186.983 63.5282C186.749 63.6311 186.539 63.7835 186.369 63.9748C186.199 64.1661 186.073 64.3919 185.998 64.6365C185.924 64.8812 185.904 65.139 185.938 65.3924V72.7901H182.055V65.3164C182.055 64.0496 181.433 63.3783 180.317 63.3783C180.058 63.3762 179.802 63.4294 179.565 63.5344C179.329 63.6393 179.117 63.7936 178.946 63.9867C178.774 64.1799 178.645 64.4075 178.569 64.6543C178.492 64.9011 178.47 65.1614 178.502 65.4177V72.7901H174.429L174.403 60.3001Z" fill="#1E1B1B"/>
<path d="M70.3981 57.3489C70.3982 54.8277 69.6355 52.3653 68.2099 50.2841C66.7843 48.203 64.7623 46.6001 62.4087 45.6855C60.0551 44.7709 57.4796 44.5873 55.0197 45.1585C52.5597 45.7298 50.33 47.0294 48.6225 48.8872H32.7856V82.2528H66.2231V66.6594C67.5355 65.4876 68.5857 64.0528 69.3051 62.4485C70.0245 60.8442 70.3969 59.1066 70.3981 57.3489ZM63.9644 57.3489C63.9669 58.557 63.6103 59.7387 62.9397 60.7445C62.2692 61.7502 61.3148 62.5347 60.1974 62.9988C59.08 63.4629 57.8498 63.5856 56.6624 63.3514C55.4751 63.1173 54.3841 62.5368 53.5274 61.6834C52.6708 60.83 52.087 59.7421 51.8499 58.5574C51.6129 57.3727 51.7333 56.1444 52.1958 55.028C52.6584 53.9116 53.4423 52.9573 54.4485 52.2858C55.4546 51.6143 56.6376 51.2559 57.8479 51.2559C59.4679 51.2559 61.0217 51.8975 62.1684 53.0398C63.3151 54.182 63.961 55.7318 63.9644 57.3489ZM59.7894 75.8305H39.2193V55.3095H45.4881C45.367 55.9827 45.3033 56.6649 45.2977 57.3489C45.3011 60.6705 46.6244 63.8551 48.9773 66.2038C51.3302 68.5525 54.5204 69.8735 57.8479 69.8769C58.4984 69.8734 59.1477 69.8184 59.7894 69.7122V75.8305Z" fill="#1E1B1B"/>
</svg>
